<svg width="20" height="20" viewBox="0 0 20 20" fill="none" xmlns="http://www.w3.org/2000/svg"><path fill-rule="evenodd" clip-rule="evenodd" d="M10 20a10 10 0 1 1 0-20 10 10 0 0 1 0 20Zm6.73-5.34a8.18 8.18 0 1 0-13.45 0C4.3 13.3 6.7 12.73 10 12.73c-2.04 0-3.64-1.43-3.64-4.55A3.5 3.5 0 0 1 10 4.55c2.2 0 3.64 1.74 3.64 3.81 0 2.99-1.62 4.37-3.64 4.37 3.3 0 5.7.58 6.73 1.93Zm-1.3 1.47c-.27-.96-2.19-1.58-5.43-1.58-3.24 0-5.16.62-5.42 1.58a8.15 8.15 0 0 0 10.84 0ZM8.17 8.18c0 2.06.75 2.73 1.82 2.73s1.82-.64 1.82-2.55c0-1.13-.71-2-1.82-2-1.15 0-1.82.75-1.82 1.82Z" fill="#fff"/></svg>